<svg width="114" height="89" viewBox="0 0 114 89" fill="none" xmlns="http://www.w3.org/2000/svg">
<path d="M12.509 19.2265C12.509 16.1791 81.4706 -0.0185737 99.1119 1.05059C116.753 2.11977 115.684 23.5032 103.389 25.6416C96.7344 26.7988 91.2002 24.5475 87.3402 21.7949C87.548 23.5873 87.5778 25.5874 87.351 27.7799C86.4788 36.2114 74.5127 30.9862 65.5454 25.7126C68.2556 31.0561 67.9458 35.8154 59.018 33.6604C43.515 29.9183 12.509 22.274 12.509 19.2265Z" fill="#EE4423"/>
<path d="M12.5091 19.2265C4.90906 13.8453 5.00906 10.1667 6.00906 9M12.5091 19.2265C2.90907 17.4453 0.842403 15 1.00907 14M12.5091 19.2265C12.5091 16.1791 81.4707 -0.0185737 99.112 1.05059C116.753 2.11977 115.684 23.5032 103.389 25.6416C91.0932 27.7799 82.6221 18.2807 81.4707 15.4844C77.7286 6.39646 88.9549 12.2769 87.3511 27.7799C85.9981 40.8592 57.9489 21.0756 55.8105 19.2265C52.4016 16.2787 53.5008 13.2132 56.8797 15.4844C64.0376 20.2957 74.5211 37.4025 59.0181 33.6604C43.5151 29.9183 12.5091 22.274 12.5091 19.2265Z" stroke="black" stroke-width="1.5" stroke-linecap="round" stroke-linejoin="round"/>
<path d="M41.509 89C52.5547 89 61.509 74.6731 61.509 57C61.509 39.3269 52.5547 25 41.509 25C30.4633 25 21.509 39.3269 21.509 57C21.509 74.6731 30.4633 89 41.509 89Z" fill="black"/>
<path d="M41.509 86C50.8979 86 58.509 73.0163 58.509 57C58.509 40.9837 50.8979 28 41.509 28C32.1202 28 24.509 40.9837 24.509 57C24.509 73.0163 32.1202 86 41.509 86Z" fill="#72C8D5"/>
<path d="M81.509 89C92.5547 89 101.509 74.6731 101.509 57C101.509 39.3269 92.5547 25 81.509 25C70.4633 25 61.509 39.3269 61.509 57C61.509 74.6731 70.4633 89 81.509 89Z" fill="black"/>
<path d="M81.509 86C90.8979 86 98.509 73.0163 98.509 57C98.509 40.9837 90.8979 28 81.509 28C72.1202 28 64.509 40.9837 64.509 57C64.509 73.0163 72.1202 86 81.509 86Z" fill="#72C8D5"/>
<path d="M87.509 69C90.8227 69 93.509 63.6274 93.509 57C93.509 50.3726 90.8227 45 87.509 45C84.1953 45 81.509 50.3726 81.509 57C81.509 63.6274 84.1953 69 87.509 69Z" fill="black"/>
<path d="M47.509 69C50.8227 69 53.509 63.6274 53.509 57C53.509 50.3726 50.8227 45 47.509 45C44.1953 45 41.509 50.3726 41.509 57C41.509 63.6274 44.1953 69 47.509 69Z" fill="black"/>
</svg>
