<svg width="69" height="69" viewBox="0 0 69 69" fill="none" xmlns="http://www.w3.org/2000/svg">
<path fill-rule="evenodd" clip-rule="evenodd" d="M13.8762 54.1796L2.23924 42.5366C0.838244 41.0966 0.0372441 39.1766 0.000244141 37.1666C0.104244 36.0756 0.406244 35.0126 0.891244 34.0306L11.6552 11.6416L13.8762 54.1796Z" fill="#01579B"/>
<path fill-rule="evenodd" clip-rule="evenodd" d="M53.7288 13.8871L42.0858 2.24411C41.0748 1.22711 38.9558 0.00510638 37.1618 0.00510638C35.7648 -0.0428936 34.3788 0.265106 33.1348 0.902106L11.6548 11.6411L53.7288 13.8871Z" fill="#40C4FF"/>
<path fill-rule="evenodd" clip-rule="evenodd" d="M27.7585 68.0614H55.9685V55.9674L34.9225 49.2544L15.6755 55.9674L27.7585 68.0614Z" fill="#40C4FF"/>
<path fill-rule="evenodd" clip-rule="evenodd" d="M11.655 47.9125C11.655 51.5245 12.106 52.3915 13.894 54.1855L15.7 55.9915H55.992L36.271 33.5905L11.655 11.6475V47.9125Z" fill="#29B6F6"/>
<path fill-rule="evenodd" clip-rule="evenodd" d="M47.4558 11.6414H11.6548L55.9798 55.9674H68.0688V28.2084L53.7288 13.8874C51.7178 11.8644 49.9308 11.6414 47.4558 11.6414Z" fill="#01579B"/>
<path fill-rule="evenodd" clip-rule="evenodd" d="M14.3278 54.6306C12.5218 52.8246 12.0878 51.0606 12.0878 47.9126V12.0926L11.6548 11.6416V47.9066C11.6548 51.0606 11.6548 51.9276 14.3458 54.6306L15.6938 55.9736L14.3278 54.6306Z" fill="white"/>
<path fill-rule="evenodd" clip-rule="evenodd" d="M67.6111 27.7634V55.5214H55.5171L55.9681 55.9674H68.0631V28.2144L67.6111 27.7634Z" fill="#263238"/>
<path fill-rule="evenodd" clip-rule="evenodd" d="M53.7288 13.8871C51.5078 11.6661 49.6898 11.6411 47.0108 11.6411H11.6548L12.1058 12.0931H47.0228C48.3538 12.0931 51.7298 11.8701 53.7348 13.8991L53.7288 13.8871Z" fill="white"/>
</svg>
